# This file uses centimeters as units for non-parametric coordinates.

mtllib colafish.mtl
g default
v 0.005457 0.213219 -0.513908
v -0.005456 0.213219 -0.513908
v 0.009587 -0.088539 -0.059311
v -0.009587 -0.088539 -0.059311
v -0.009587 -0.045153 -0.107498
v 0.009587 0.188589 -0.170416
v -0.009587 0.188589 -0.170416
v 0.009587 0.085551 -0.160077
v 0.009587 -0.294687 -0.379780
v 0.006758 -0.208615 -0.350173
v -0.009587 -0.294687 -0.379780
v -0.006758 -0.208615 -0.350173
v -0.006006 -0.057509 -0.230858
v 0.005254 0.184752 -0.389161
v -0.005355 -0.030929 -0.449921
v 0.005355 -0.030929 -0.449921
v -0.009587 0.085551 -0.160077
v 0.009587 -0.045153 -0.107498
v -0.005254 0.184752 -0.389161
v 0.006006 -0.057509 -0.230858
v -0.005456 0.306698 -0.548871
v 0.005457 0.306698 -0.548871
v -0.005254 0.282333 -0.413282
v 0.005254 0.282333 -0.413282
v 0.009587 0.157167 -0.050526
v -0.009587 0.157167 -0.050526
v 0.012007 0.067993 -0.051568
v 0.013217 -0.030403 -0.007946
v 0.014428 -0.090329 0.053069
v 0.009587 -0.159051 0.102414
v 0.009587 -0.178424 -0.046373
v -0.009587 -0.178424 -0.046373
v -0.014428 -0.090329 0.053069
v -0.009587 -0.159051 0.102414
v -0.013217 -0.030403 -0.007946
v -0.012007 0.067993 -0.051568
v -0.006758 -0.320532 -0.475940
v -0.005254 -0.236348 -0.513063
v 0.005254 -0.236348 -0.513063
v 0.006758 -0.320532 -0.475940
vt 0.149400 0.538400
vt 0.149400 0.538400
vt 0.145500 0.567600
vt 0.145500 0.567600
vt 0.294400 0.447700
vt 0.307600 0.429900
vt 0.269600 0.431200
vt 0.266900 0.449200
vt 0.307200 0.430200
vt 0.294300 0.447900
vt 0.266900 0.449200
vt 0.269500 0.431300
vt 0.279400 0.467400
vt 0.254700 0.462700
vt 0.270700 0.526200
vt 0.269400 0.526300
vt 0.240300 0.535700
vt 0.239600 0.535900
vt 0.268800 0.498500
vt 0.241800 0.503700
vt 0.269600 0.431200
vt 0.179600 0.392200
vt 0.186900 0.419100
vt 0.180700 0.392600
vt 0.269500 0.431300
vt 0.186900 0.419100
vt 0.218400 0.463000
vt 0.179200 0.559900
vt 0.179600 0.559800
vt 0.180300 0.529400
vt 0.179200 0.559900
vt 0.156800 0.384400
vt 0.146600 0.410000
vt 0.155900 0.383500
vt 0.146500 0.410300
vt 0.164000 0.471300
vt 0.146500 0.410300
vt 0.164000 0.471300
vt 0.241800 0.503700
vt 0.268800 0.498500
vt 0.279400 0.467400
vt 0.254700 0.462700
vt 0.179600 0.559800
vt 0.180300 0.529400
vt 0.218400 0.463000
vt 0.146600 0.410000
vn 0.718503 -0.194401 -0.667803
vn -0.718503 -0.194401 -0.667803
vn -0.555094 0.546694 -0.626894
vn 0.555094 0.546694 -0.626894
vn 0.973139 -0.141106 -0.181907
vn 0.620273 -0.705570 -0.342685
vn 0.729388 -0.664789 0.161397
vn 0.999532 -0.011600 -0.028301
vn -0.620275 -0.702572 -0.348786
vn -0.968123 -0.159404 -0.193205
vn -0.999579 -0.018100 -0.022700
vn -0.734130 -0.658327 0.166307
vn -0.986691 -0.072599 -0.145499
vn -0.999430 -0.018101 -0.028501
vn -0.999579 -0.018100 -0.022700
vn -0.968123 -0.159404 -0.193205
vn -0.660304 0.749905 -0.040500
vn 0.660304 0.749905 -0.040500
vn 0.724604 0.652803 0.220901
vn -0.724604 0.652803 0.220901
vn 0.660304 0.749905 -0.040500
vn 0.987170 -0.031699 -0.156495
vn 0.999813 -0.002900 -0.019100
vn 0.724604 0.652803 0.220901
vn 0.999532 -0.011600 -0.028301
vn 0.729388 -0.664789 0.161397
vn 0.717997 -0.664397 0.207499
vn 0.999483 0.025000 -0.020200
vn 0.729388 -0.664789 0.161397
vn -0.734130 -0.658327 0.166307
vn -0.712588 -0.666888 0.217896
vn 0.717997 -0.664397 0.207499
vn -0.734130 -0.658327 0.166307
vn -0.999579 -0.018100 -0.022700
vn -0.999647 0.023101 -0.013101
vn -0.712588 -0.666888 0.217896
vn -0.999579 -0.018100 -0.022700
vn -0.999430 -0.018101 -0.028501
vn -0.999861 0.001600 -0.016599
vn -0.999647 0.023101 -0.013101
vn -0.724604 0.652803 0.220901
vn 0.724604 0.652803 0.220901
vn 0.683616 0.698916 0.210205
vn -0.683616 0.698916 0.210205
vn 0.724604 0.652803 0.220901
vn 0.999813 -0.002900 -0.019100
vn 0.999957 -0.002300 -0.009000
vn 0.683616 0.698916 0.210205
vn 0.999483 0.025000 -0.020200
vn 0.717997 -0.664397 0.207499
vn 0.583827 -0.728234 -0.358917
vn 0.636423 -0.037501 -0.770428
vn 0.717997 -0.664397 0.207499
vn -0.712588 -0.666888 0.217896
vn -0.578392 -0.731290 -0.361495
vn 0.583827 -0.728234 -0.358917
vn -0.712588 -0.666888 0.217896
vn -0.999647 0.023101 -0.013101
vn -0.634295 -0.035100 -0.772294
vn -0.578392 -0.731290 -0.361495
vn -0.999861 0.001600 -0.016599
vn -0.767739 0.012901 -0.640633
vn -0.634295 -0.035100 -0.772294
vn -0.999647 0.023101 -0.013101
vn 0.683616 0.698916 0.210205
vn 0.999957 -0.002300 -0.009000
vn 0.718503 -0.194401 -0.667803
vn 0.555094 0.546694 -0.626894
vn 0.767739 0.012901 -0.640633
vn -0.767739 0.012901 -0.640633
vn -0.718503 -0.194401 -0.667803
vn 0.718503 -0.194401 -0.667803
vn -0.660304 0.749905 -0.040500
vn -0.724604 0.652803 0.220901
vn -0.999813 -0.002900 -0.019100
vn -0.987170 -0.031699 -0.156495
vn 0.987170 -0.031699 -0.156495
vn 0.986691 -0.072599 -0.145499
vn 0.999430 -0.018101 -0.028501
vn 0.999813 -0.002900 -0.019100
vn -0.724604 0.652803 0.220901
vn -0.683616 0.698916 0.210205
vn -0.999957 -0.002300 -0.009000
vn -0.999813 -0.002900 -0.019100
vn 0.999813 -0.002900 -0.019100
vn 0.999430 -0.018101 -0.028501
vn 0.999861 0.001600 -0.016599
vn 0.999957 -0.002300 -0.009000
vn -0.683616 0.698916 0.210205
vn -0.555094 0.546694 -0.626894
vn -0.718503 -0.194401 -0.667803
vn -0.999957 -0.002300 -0.009000
vn 0.999957 -0.002300 -0.009000
vn 0.999861 0.001600 -0.016599
vn 0.767739 0.012901 -0.640633
vn 0.718503 -0.194401 -0.667803
vn -0.987170 -0.031699 -0.156495
vn -0.999813 -0.002900 -0.019100
vn -0.999430 -0.018101 -0.028501
vn -0.986691 -0.072599 -0.145499
vn -0.999813 -0.002900 -0.019100
vn -0.999957 -0.002300 -0.009000
vn -0.999861 0.001600 -0.016599
vn -0.999430 -0.018101 -0.028501
vn -0.999957 -0.002300 -0.009000
vn -0.718503 -0.194401 -0.667803
vn -0.767739 0.012901 -0.640633
vn -0.999861 0.001600 -0.016599
vn 0.636423 -0.037501 -0.770428
vn -0.634295 -0.035100 -0.772294
vn -0.767739 0.012901 -0.640633
vn 0.767739 0.012901 -0.640633
vn 0.986691 -0.072599 -0.145499
vn 0.973139 -0.141106 -0.181907
vn 0.999532 -0.011600 -0.028301
vn 0.999430 -0.018101 -0.028501
vn 0.999532 -0.011600 -0.028301
vn 0.999483 0.025000 -0.020200
vn 0.999861 0.001600 -0.016599
vn 0.999430 -0.018101 -0.028501
vn 0.999861 0.001600 -0.016599
vn 0.999483 0.025000 -0.020200
vn 0.636423 -0.037501 -0.770428
vn 0.767739 0.012901 -0.640633
s off
g polySurface3 TropicalFish17:TropicalFish15
usemtl TropicalFish17:___Default
f 1/1/1 2/2/2 21/3/3 22/4/4
f 29/5/5 30/6/6 31/7/7 3/8/8
f 34/9/9 33/10/10 4/11/11 32/12/12
f 35/13/13 5/14/14 4/11/15 33/10/16
f 26/15/17 25/16/18 6/17/19 7/18/20
f 25/16/21 27/19/22 8/20/23 6/17/24
f 3/8/25 31/21/26 9/22/27 10/23/28
f 31/7/29 32/12/30 11/24/31 9/22/32
f 32/25/33 4/11/34 12/26/35 11/24/36
f 4/11/37 5/14/38 13/27/39 12/26/40
f 7/18/41 6/17/42 24/28/43 23/29/44
f 6/17/45 8/20/46 14/30/47 24/31/48
f 10/23/49 9/22/50 40/32/51 39/33/52
f 9/22/53 11/24/54 37/34/55 40/32/56
f 11/24/57 12/26/58 38/35/59 37/34/60
f 13/27/61 15/36/62 38/37/63 12/26/64
f 24/28/65 14/30/66 1/1/67 22/4/68
f 16/38/69 15/36/70 2/2/71 1/1/72
f 26/15/73 7/18/74 17/39/75 36/40/76
f 27/19/77 28/41/78 18/42/79 8/20/80
f 7/18/81 23/43/82 19/44/83 17/39/84
f 8/20/85 18/42/86 20/45/87 14/30/88
f 23/29/89 21/3/90 2/2/91 19/44/92
f 14/30/93 20/45/94 16/38/95 1/1/96
f 36/40/97 17/39/98 5/14/99 35/13/100
f 17/39/101 19/44/102 13/27/103 5/14/104
f 19/44/105 2/2/106 15/36/107 13/27/108
f 39/33/109 38/35/110 15/36/111 16/38/112
f 28/41/113 29/5/114 3/8/115 18/42/116
f 3/8/117 10/23/118 20/45/119 18/42/120
f 20/45/121 10/23/122 39/46/123 16/38/124
